<svg width="16" height="16" viewBox="0 0 16 16" fill="none" xmlns="http://www.w3.org/2000/svg">
<path d="M13.6516 5.97763L4.45491 1.30888C4.09445 1.09976 3.68514 0.993179 3.27004 1.00034C2.85495 1.0075 2.44943 1.12814 2.09618 1.34956C1.74292 1.57099 1.45499 1.885 1.26269 2.25856C1.07038 2.63212 0.98082 3.05141 1.00343 3.47229V12.5388C0.987013 12.9582 1.07858 13.3746 1.26909 13.7471C1.45959 14.1196 1.74246 14.4352 2.08978 14.6628C2.44386 14.8843 2.8518 15.0011 3.26769 15C3.67865 14.9955 4.08296 14.8941 4.44871 14.7038L13.6454 10.035C14.0452 9.87324 14.388 9.59344 14.6294 9.23179C14.8709 8.87013 15 8.44325 15 8.00632C15 7.56939 14.8709 7.14251 14.6294 6.78085C14.388 6.4192 14.0452 6.1394 13.6454 5.97763H13.6516Z" fill="#FEDC54"/>
</svg>
